<?xml version="1.0" standalone="no"?>
<!DOCTYPE svg PUBLIC "-//W3C//DTD SVG 20010904//EN"
 "http://www.w3.org/TR/2001/REC-SVG-20010904/DTD/svg10.dtd">
<svg version="1.0" xmlns="http://www.w3.org/2000/svg"
 width="512.000000pt" height="512.000000pt" viewBox="0 0 512.000000 512.000000"
 preserveAspectRatio="xMidYMid meet">
<metadata>
Created by potrace 1.14, written by Peter Selinger 2001-2017
</metadata>
<g transform="translate(0.000000,512.000000) scale(0.100000,-0.100000)"
fill="#000000" stroke="none">
<path d="M1 4208 c0 -639 4 -904 11 -883 178 521 393 862 754 1196 278 257
674 484 1024 584 38 11 -104 13 -872 14 l-918 1 1 -912z"/>
<path d="M3325 5105 c202 -64 448 -176 605 -273 444 -276 780 -644 1003 -1097
57 -116 149 -346 162 -406 4 -16 11 -29 16 -29 5 0 9 362 9 910 l0 910 -917
-1 c-761 -1 -911 -3 -878 -14z"/>
<path d="M2344 5020 c-189 -17 -430 -68 -609 -130 -337 -118 -663 -325 -924
-589 -459 -462 -704 -1041 -716 -1686 -5 -264 9 -385 71 -644 105 -434 327
-826 654 -1151 369 -368 799 -588 1345 -689 131 -24 396 -35 557 -23 188 15
256 26 428 68 443 109 813 318 1144 648 419 417 662 939 716 1541 16 179 8
421 -20 585 -18 100 -71 319 -92 380 -147 412 -324 697 -607 979 -371 369
-825 601 -1351 690 -165 28 -414 37 -596 21z m769 -1766 c15 -14 36 -51 48
-83 18 -49 20 -68 14 -157 -4 -58 -2 -141 4 -195 6 -52 13 -143 16 -204 2 -60
5 -117 5 -125 0 -9 9 -4 23 15 57 77 161 186 184 191 40 10 71 -10 83 -56 16
-60 -1 -107 -70 -189 -33 -40 -60 -76 -60 -82 0 -5 21 -36 48 -68 79 -98 171
-226 181 -255 8 -20 7 -36 -3 -61 -17 -39 -42 -55 -88 -55 -41 0 -56 14 -170
164 -46 60 -93 113 -106 117 -23 9 -23 8 -16 -54 4 -34 8 -97 8 -139 1 -71 -1
-80 -25 -104 -36 -36 -92 -36 -128 0 -23 24 -27 38 -37 144 -6 64 -11 212 -13
327 -1 116 -9 291 -17 390 -12 141 -12 200 -4 275 18 152 29 198 53 215 30 21
40 19 70 -11z m-1699 -134 c15 -18 27 -49 31 -78 4 -26 13 -81 22 -122 8 -41
18 -97 23 -125 4 -27 15 -88 23 -135 17 -90 23 -146 33 -275 3 -44 13 -118 21
-165 21 -116 32 -260 22 -286 -10 -28 -57 -64 -83 -64 -11 0 -35 9 -53 20 -34
21 -35 22 -53 170 -6 47 -17 119 -25 160 -8 41 -14 102 -14 135 -1 33 -13 137
-27 230 -14 94 -32 211 -40 260 -25 169 -11 259 45 290 37 20 46 19 75 -15z
m-901 0 c39 -31 63 -93 97 -245 17 -77 37 -167 45 -200 7 -33 17 -85 21 -115
10 -80 17 -91 54 -79 16 6 65 16 107 23 l78 12 -2 94 c-9 389 -8 435 7 465 12
24 22 30 49 30 48 0 67 -32 91 -150 19 -91 29 -171 61 -465 5 -52 23 -147 40
-210 19 -76 32 -153 36 -227 l6 -112 -31 -30 c-32 -33 -64 -39 -105 -20 -35
16 -47 43 -53 122 -9 119 -44 289 -64 310 -4 5 -50 2 -101 -7 -52 -8 -103 -14
-114 -13 -16 2 -20 -4 -19 -28 1 -16 5 -95 9 -175 l8 -145 -31 -32 c-36 -39
-76 -43 -115 -13 -32 26 -47 75 -47 160 0 71 -14 217 -30 320 -5 36 -14 97
-20 135 -6 39 -19 111 -30 160 -25 119 -38 211 -46 322 -5 84 -4 93 15 112 26
26 51 27 84 1z m3472 -479 c90 -42 144 -126 145 -224 0 -119 -73 -197 -186
-197 -53 0 -54 -8 -15 -71 24 -39 37 -48 75 -58 65 -16 85 -14 118 14 57 48
140 21 154 -50 7 -38 -4 -60 -52 -108 -61 -61 -140 -71 -271 -37 -88 24 -100
30 -130 62 -25 28 -126 201 -161 278 -21 45 -26 71 -26 140 0 133 44 210 148
252 56 23 150 22 201 -1z m418 -50 c23 -22 59 -73 81 -115 22 -42 44 -76 50
-76 6 0 29 33 50 73 21 39 46 80 55 91 34 40 132 61 159 34 28 -28 13 -90 -55
-222 -51 -99 -102 -222 -123 -291 -51 -172 -150 -361 -206 -391 -52 -28 -115
2 -130 63 -5 20 0 40 21 78 63 115 88 170 121 265 19 56 34 105 34 110 0 5 -9
11 -19 15 -36 11 -71 59 -127 172 -64 129 -67 168 -19 211 37 31 59 28 108
-17z m-1721 -61 c33 -40 24 -63 -38 -100 -38 -22 -49 -64 -38 -148 9 -80 28
-122 54 -122 26 0 75 25 113 56 43 36 98 33 131 -7 14 -17 26 -41 26 -53 0
-54 -95 -145 -173 -167 -71 -20 -157 -16 -210 10 -39 19 -53 33 -76 80 -38 75
-52 141 -53 242 -2 128 39 201 130 230 46 14 114 4 134 -21z m-597 -29 c106
-60 177 -156 200 -269 33 -155 -18 -296 -127 -350 -43 -21 -51 -22 -138 -12
-124 14 -165 37 -227 127 -35 52 -37 58 -37 137 0 71 5 98 35 176 18 51 45
104 59 117 48 47 135 103 160 103 14 0 48 -13 75 -29z"/>
<path d="M3830 2444 c-6 -14 -10 -37 -10 -50 0 -24 3 -25 33 -19 49 11 81 28
85 46 5 26 -26 49 -64 49 -28 0 -36 -5 -44 -26z"/>
<path d="M1970 2255 c-11 -25 -22 -67 -26 -93 -5 -42 -3 -52 17 -74 29 -31 98
-43 126 -23 27 20 23 141 -6 188 -40 64 -84 65 -111 2z"/>
<path d="M5096 1809 c-13 -69 -101 -291 -165 -419 -264 -528 -673 -937 -1201
-1201 -120 -60 -334 -145 -412 -164 -16 -4 -28 -11 -28 -16 0 -5 386 -9 915
-9 l915 0 0 920 c0 519 -4 920 -9 920 -5 0 -11 -14 -15 -31z"/>
<path d="M1 918 l-1 -918 910 0 c548 0 910 4 910 9 0 5 -13 12 -29 16 -53 11
-284 102 -396 156 -276 131 -587 363 -797 596 -268 298 -445 607 -586 1028 -7
21 -11 -258 -11 -887z"/>
</g>
</svg>
